<svg width="191" height="193" viewBox="0 0 191 193" fill="none" xmlns="http://www.w3.org/2000/svg">
<path d="M190.91 0.620117V123.699C190.91 161.509 160.235 192.157 122.436 192.157C84.6363 192.157 53.9578 161.491 53.9578 123.699C53.9578 114.266 53.9578 102.89 56.2876 90.9744C57.9272 82.5778 60.7282 73.9002 65.5083 65.4671C66.5162 63.6807 67.6178 61.9089 68.8132 60.1517C88.1895 31.253 122.432 18.0339 122.432 18.0339V35.4439L190.91 0.620117Z" fill="#53407F"/>
<path d="M173.345 127.467C172.918 129.526 172.116 131.49 170.979 133.26L163.526 131.701L146.727 128.189L139.227 126.62C138.831 124.109 138.993 121.543 139.7 119.102C140.407 116.661 141.641 114.406 143.317 112.495C144.993 110.584 147.068 109.065 149.396 108.045C151.724 107.025 154.248 106.529 156.789 106.592C159.33 106.655 161.826 107.276 164.1 108.41C166.375 109.544 168.372 111.165 169.95 113.156C171.529 115.148 172.65 117.462 173.235 119.935C173.82 122.408 173.854 124.979 173.334 127.467H173.345Z" fill="#F9F6FF"/>
<path d="M151.65 93.5335L177.884 99.3271C172.407 93.8255 166.279 91.2263 160.926 90.3976C154.287 89.3754 151.65 93.5335 151.65 93.5335Z" fill="#100C1A"/>
<path d="M110.443 136.257L111.291 139.813C113.412 148.721 116.476 155.336 120.398 159.483C124.251 163.561 127.829 163.988 129.188 163.984C129.789 163.987 130.39 163.932 130.981 163.82C134.698 163.09 137.043 159.976 138.84 153.562L139.07 152.751L138.288 153.069C135.277 154.124 132.049 154.408 128.899 153.894C121.961 152.799 116.14 147.819 112.061 139.536L110.443 136.257ZM129.188 163.163C127.362 163.163 118.408 162.17 112.93 142.858C118.017 151.302 124.251 153.992 128.808 154.715C131.823 155.192 134.906 154.982 137.828 154.102C135.432 162.027 132.266 163.156 129.188 163.163Z" fill="#100C1A"/>
<path d="M112.93 142.858C118.408 162.17 127.366 163.17 129.188 163.163C132.266 163.163 135.432 162.028 137.828 154.102C134.906 154.983 131.823 155.192 128.808 154.715C124.262 153.992 118.017 151.302 112.93 142.858Z" fill="#F9F6FF"/>
<path d="M123.827 123.765C123.827 123.765 108.979 113.364 93.3969 116.701L94.6166 120.074C94.6166 120.074 106.054 118.471 123.827 123.765Z" fill="#100C1A"/>
<path d="M121.055 113.054C121.055 113.054 102.632 103.179 94.8649 108.271Z" fill="#100C1A"/>
<path d="M166.863 124.028C166.864 125.466 166.568 126.89 165.994 128.209C165.419 129.528 164.579 130.714 163.526 131.694L146.727 128.182C146.107 126.752 145.814 125.201 145.868 123.643C145.923 122.085 146.324 120.559 147.043 119.175C147.761 117.791 148.779 116.585 150.023 115.644C151.266 114.703 152.704 114.051 154.231 113.736C155.758 113.42 157.337 113.448 158.851 113.819C160.366 114.189 161.779 114.893 162.988 115.878C164.197 116.863 165.171 118.105 165.839 119.513C166.508 120.922 166.854 122.461 166.852 124.021L166.863 124.028Z" fill="#100C1A"/>
<path d="M152.165 118.833C153.903 118.833 155.313 117.424 155.313 115.686C155.313 113.948 153.903 112.539 152.165 112.539C150.426 112.539 149.017 113.948 149.017 115.686C149.017 117.424 150.426 118.833 152.165 118.833Z" fill="#F9F6FF"/>
<path d="M154.436 120.665C154.745 120.665 154.995 120.415 154.995 120.107C154.995 119.798 154.745 119.548 154.436 119.548C154.128 119.548 153.878 119.798 153.878 120.107C153.878 120.415 154.128 120.665 154.436 120.665Z" fill="#F9F6FF"/>
<path d="M85.9327 125.663H15.1869C10.7499 125.663 7.15295 129.259 7.15295 133.695V184.18C7.15295 188.615 10.7499 192.211 15.1869 192.211H85.9327C90.3697 192.211 93.9666 188.615 93.9666 184.18V133.695C93.9666 129.259 90.3697 125.663 85.9327 125.663Z" fill="#ADBCFF"/>
<path d="M84.6947 136.637V175.123C84.6937 177.198 83.8692 179.188 82.402 180.656C80.9348 182.124 78.9449 182.95 76.869 182.953H65.5485V151.116L84.6947 136.637Z" fill="#34A951"/>
<path d="M84.6911 128.511V136.641L65.5485 151.116V127.12L71.9756 122.261C73.3368 121.231 74.9973 120.673 76.7046 120.673H76.869C78.9458 120.676 80.9365 121.503 82.4033 122.973C83.8701 124.443 84.693 126.435 84.6911 128.511Z" fill="#FCBB01"/>
<path d="M2.14636 136.608V175.09C2.14636 177.167 2.9715 179.159 4.44038 180.628C5.90926 182.097 7.90163 182.923 9.97942 182.924H21.2999V151.087L2.14636 136.608Z" fill="#4385F6"/>
<path d="M21.289 127.087V151.086L2.14636 136.608V128.474C2.14733 126.397 2.97328 124.404 4.44274 122.935C5.9122 121.466 7.90495 120.641 9.98308 120.64H10.1364C11.8505 120.636 13.5183 121.196 14.8837 122.231L21.289 127.087Z" fill="#C5221D"/>
<path d="M65.5448 127.12V151.116L59.2747 155.869H59.2674L43.4187 167.865V167.832L27.5663 155.84L21.2889 151.086V127.087L43.4187 143.836V143.865L65.5448 127.12Z" fill="#EA4237"/>
<path d="M84.64 149.999V175.155C84.6429 177.194 83.8374 179.151 82.4 180.596C80.9625 182.042 79.0104 182.86 76.9713 182.869H30.4002V185.06H76.9713C79.5937 185.049 82.1048 183.999 83.9534 182.139C85.8019 180.279 86.8369 177.763 86.8311 175.141V149.999H84.64ZM2.20122 175.155V149.999H0.0101515V175.155C0.00335899 177.777 1.03799 180.295 2.88675 182.155C4.73551 184.015 7.24718 185.065 9.86994 185.074H21.289V182.884H9.86263C7.82194 182.873 5.86889 182.053 4.4324 180.604C2.99591 179.155 2.19345 177.196 2.20122 175.155ZM76.9713 118.522H9.86263C7.23986 118.532 4.7282 119.582 2.87944 121.442C1.03068 123.302 -0.00395169 125.819 0.00284085 128.441V137.203L0.16352 137.327L2.19025 138.871V128.441C2.18636 126.403 2.99157 124.445 4.42921 122.999C5.86686 121.553 7.81955 120.736 9.85897 120.727H76.9713C79.0104 120.737 80.9625 121.554 82.4 123C83.8374 124.446 84.6429 126.403 84.64 128.441V138.89L86.7836 137.254L86.8274 137.444V128.441C86.8332 125.82 85.7988 123.304 83.951 121.444C82.1033 119.585 79.5931 118.534 76.9713 118.522Z" fill="#100C1A"/>
<path d="M86.8274 134.461V137.221L86.7836 137.254L84.64 138.89L84.5961 138.923L43.4297 170.373L2.36551 139.003V138.999L2.2012 138.875V138.871L0.174444 137.327L0.0101318 137.203V134.447L2.2012 136.119L43.4297 167.617L84.64 136.137L86.8274 134.461Z" fill="#100C1A"/>
<path d="M2.36548 138.999L2.20117 138.875V138.871L2.36548 138.999Z" fill="#100C1A"/>
</svg>
