<svg width="186" height="198" viewBox="0 0 186 198" fill="none" xmlns="http://www.w3.org/2000/svg">
<path d="M185.811 0.979492V122.302C185.811 140.198 178.7 157.361 166.042 170.015C153.384 182.669 136.216 189.778 118.315 189.778C81.038 189.778 50.8159 159.569 50.8159 122.302C50.8159 113.004 50.8159 101.786 53.1165 90.0451C54.7306 81.758 57.4987 73.2155 62.2058 64.9029C63.1991 63.1432 64.2837 61.3958 65.4595 59.6605C84.5547 31.1742 118.312 18.145 118.312 18.145V35.3032L185.811 0.979492Z" fill="#53407F"/>
<path d="M156.688 100.168L134.631 96.1925C134.631 96.1925 140.2 90.9392 147.679 92.2169C154.493 93.3851 156.688 100.168 156.688 100.168Z" fill="#100C1A"/>
<path d="M87.151 100.186L109.427 96.1707C109.427 96.1707 103.799 90.8626 96.2439 92.1549C89.3713 93.3341 87.151 100.186 87.151 100.186Z" fill="#100C1A"/>
<path d="M127.218 122.759C127.212 124.819 127.584 126.863 128.314 128.79H129.125H135.113H135.26L153.153 128.771H160.092C160.975 126.441 161.335 123.944 161.145 121.459C160.956 118.974 160.222 116.561 158.996 114.39C157.77 112.22 156.082 110.346 154.05 108.901C152.019 107.456 149.695 106.475 147.242 106.028C144.789 105.581 142.268 105.678 139.857 106.314C137.447 106.949 135.205 108.107 133.292 109.704C131.378 111.302 129.84 113.301 128.785 115.56C127.73 117.818 127.186 120.281 127.189 122.773L127.218 122.759Z" fill="#F9F6FF"/>
<path d="M128.701 123.28C128.698 125.25 129.3 127.172 130.424 128.789L146.383 128.771C147.245 127.519 147.8 126.082 148.004 124.576C148.208 123.069 148.055 121.536 147.557 120.1C147.059 118.664 146.23 117.365 145.137 116.309C144.044 115.252 142.718 114.467 141.265 114.017C139.813 113.567 138.275 113.465 136.776 113.719C135.277 113.973 133.859 114.576 132.636 115.479C131.413 116.382 130.419 117.56 129.736 118.918C129.052 120.276 128.698 121.775 128.701 123.295V123.28Z" fill="#100C1A"/>
<path d="M133.105 123.266C133.503 123.266 133.825 122.944 133.825 122.547C133.825 122.15 133.503 121.828 133.105 121.828C132.708 121.828 132.386 122.15 132.386 122.547C132.386 122.944 132.708 123.266 133.105 123.266Z" fill="#F9F6FF"/>
<path d="M131.027 121.455C132.508 121.455 133.708 120.256 133.708 118.776C133.708 117.296 132.508 116.096 131.027 116.096C129.547 116.096 128.347 117.296 128.347 118.776C128.347 120.256 129.547 121.455 131.027 121.455Z" fill="#F9F6FF"/>
<path d="M83.0245 122.759C83.0243 124.82 83.4018 126.864 84.1383 128.79H84.949H90.9379H91.084L108.978 128.771H115.916C116.799 126.441 117.159 123.944 116.97 121.459C116.78 118.974 116.047 116.561 114.821 114.39C113.595 112.22 111.906 110.346 109.875 108.901C107.843 107.456 105.519 106.475 103.066 106.028C100.614 105.581 98.0926 105.678 95.6818 106.314C93.271 106.949 91.0294 108.107 89.116 109.704C87.2026 111.302 85.6641 113.301 84.6095 115.56C83.5549 117.818 83.0101 120.281 83.0136 122.773L83.0245 122.759Z" fill="#F9F6FF"/>
<path d="M84.5072 123.28C84.5022 124.555 84.7505 125.819 85.2376 126.997C85.5031 127.626 85.8322 128.227 86.2199 128.789L102.178 128.771C103.04 127.519 103.596 126.082 103.8 124.576C104.004 123.069 103.85 121.536 103.352 120.1C102.854 118.664 102.025 117.365 100.932 116.309C99.8393 115.252 98.5131 114.467 97.0608 114.017C95.6084 113.567 94.0706 113.465 92.5716 113.719C91.0725 113.973 89.6542 114.576 88.4313 115.479C87.2083 116.382 86.2149 117.56 85.5314 118.918C84.8478 120.276 84.4932 121.775 84.4963 123.295L84.5072 123.28Z" fill="#100C1A"/>
<path d="M88.9113 123.266C89.3088 123.266 89.6309 122.944 89.6309 122.547C89.6309 122.15 89.3088 121.828 88.9113 121.828C88.5139 121.828 88.1918 122.15 88.1918 122.547C88.1918 122.944 88.5139 123.266 88.9113 123.266Z" fill="#F9F6FF"/>
<path d="M86.8335 121.455C88.3138 121.455 89.5139 120.256 89.5139 118.776C89.5139 117.296 88.3138 116.096 86.8335 116.096C85.3531 116.096 84.1531 117.296 84.1531 118.776C84.1531 120.256 85.3531 121.455 86.8335 121.455Z" fill="#F9F6FF"/>
<path d="M132.718 149.095C131.885 151.329 130.423 153.274 128.507 154.695C126.607 156.109 124.285 156.841 121.917 156.772C119.548 156.702 117.273 155.835 115.459 154.311C113.758 152.899 112.464 151.058 111.713 148.978C111.698 148.939 111.694 148.897 111.699 148.856C111.705 148.815 111.72 148.776 111.744 148.743C111.769 148.709 111.801 148.682 111.838 148.664C111.875 148.646 111.916 148.637 111.957 148.638L132.48 148.748C132.522 148.746 132.564 148.755 132.601 148.774C132.639 148.793 132.671 148.821 132.695 148.856C132.719 148.89 132.733 148.93 132.737 148.972C132.741 149.014 132.734 149.056 132.718 149.095Z" fill="#F9F6FF"/>
<path d="M128.507 154.695C126.7 156.108 124.462 156.861 122.168 156.827C119.703 156.811 117.324 155.919 115.456 154.311C116.445 153.818 122.858 150.883 128.507 154.695Z" fill="#100C1A"/>
<path d="M66.7922 109.587H15.419C10.982 109.587 7.38513 113.183 7.38513 117.618V189.708C7.38513 194.144 10.982 197.74 15.419 197.74H66.7922C71.2292 197.74 74.8261 194.144 74.8261 189.708V117.618C74.8261 113.183 71.2292 109.587 66.7922 109.587Z" fill="#ADBCFF"/>
<path d="M61.1176 102.589H9.62756C7.2711 102.592 5.01198 103.529 3.34571 105.195C1.67943 106.86 0.742035 109.119 0.739136 111.475V124.391H2.56502V111.475C2.56696 109.6 3.31282 107.802 4.63894 106.477C5.96505 105.151 7.76309 104.405 9.63851 104.403H61.1285C62.6883 104.405 64.2039 104.922 65.4399 105.873C66.6759 106.825 67.5634 108.157 67.9646 109.664C68.6392 109.753 69.2987 109.932 69.9256 110.197C69.6161 108.083 68.5557 106.151 66.9384 104.754C65.3211 103.357 63.2549 102.588 61.1176 102.589ZM7.4365 190.38C6.01987 189.916 4.78616 189.016 3.91137 187.809C3.03658 186.602 2.56539 185.15 2.56502 183.659V134.248H0.739136V183.659C0.7411 185.7 1.44513 187.678 2.73308 189.262C4.02102 190.845 5.8145 191.937 7.81262 192.355C7.58801 191.716 7.44924 191.049 7.39997 190.373L7.4365 190.38ZM68.1911 119.094V183.659C68.1891 185.534 67.4433 187.332 66.1171 188.658C64.791 189.983 62.993 190.729 61.1176 190.731H16.6317V192.556H61.1176C63.4759 192.553 65.7367 191.615 67.4033 189.947C69.0699 188.278 70.006 186.017 70.006 183.659V119.094H68.1911Z" fill="#100C1A"/>
<path d="M23.8002 132.601H13.1808C12.4123 132.596 11.6767 132.289 11.1333 131.746C10.5899 131.202 10.2824 130.467 10.2776 129.699V119.082C10.2824 118.314 10.5899 117.579 11.1333 117.036C11.6767 116.492 12.4123 116.185 13.1808 116.18H23.8002C24.5718 116.18 25.3121 116.485 25.8595 117.029C26.4068 117.573 26.7168 118.311 26.7216 119.082V129.699C26.7168 130.47 26.4068 131.208 25.8595 131.752C25.3121 132.296 24.5718 132.601 23.8002 132.601ZM13.1808 118.363C12.9871 118.363 12.8014 118.44 12.6644 118.577C12.5274 118.714 12.4505 118.9 12.4505 119.093V129.71C12.4505 129.903 12.5274 130.089 12.6644 130.226C12.8014 130.363 12.9871 130.44 13.1808 130.44H23.8002C23.9939 130.44 24.1796 130.363 24.3166 130.226C24.4536 130.089 24.5305 129.903 24.5305 129.71V119.082C24.5305 118.889 24.4536 118.703 24.3166 118.566C24.1796 118.429 23.9939 118.352 23.8002 118.352L13.1808 118.363Z" fill="white"/>
<path d="M23.8002 156.181H13.1808C12.4092 156.176 11.6708 155.866 11.1268 155.319C10.5829 154.772 10.2776 154.032 10.2776 153.26V142.662C10.2834 141.895 10.5912 141.16 11.1345 140.618C11.6778 140.075 12.413 139.768 13.1808 139.764H23.8002C24.5712 139.764 25.311 140.068 25.8582 140.611C26.4055 141.154 26.7158 141.892 26.7216 142.662V153.278C26.7168 154.05 26.4068 154.788 25.8595 155.332C25.3121 155.876 24.5718 156.181 23.8002 156.181ZM13.1808 141.943C12.9871 141.943 12.8014 142.02 12.6644 142.157C12.5274 142.294 12.4505 142.48 12.4505 142.673V153.289C12.4505 153.483 12.5274 153.669 12.6644 153.806C12.8014 153.943 12.9871 154.02 13.1808 154.02H23.8002C23.9939 154.02 24.1796 153.943 24.3166 153.806C24.4536 153.669 24.5305 153.483 24.5305 153.289V142.662C24.5305 142.469 24.4536 142.283 24.3166 142.146C24.1796 142.009 23.9939 141.932 23.8002 141.932L13.1808 141.943Z" fill="white"/>
<path d="M23.8002 179.789H13.1808C12.4123 179.785 11.6767 179.477 11.1333 178.934C10.5899 178.391 10.2824 177.655 10.2776 176.887V166.271C10.2824 165.503 10.5899 164.767 11.1333 164.224C11.6767 163.681 12.4123 163.373 13.1808 163.369H23.8002C24.5718 163.369 25.3121 163.674 25.8595 164.218C26.4068 164.761 26.7168 165.5 26.7216 166.271V176.887C26.7168 177.659 26.4068 178.397 25.8595 178.94C25.3121 179.484 24.5718 179.789 23.8002 179.789ZM13.1808 165.552C12.9871 165.552 12.8014 165.629 12.6644 165.766C12.5274 165.903 12.4505 166.088 12.4505 166.282V176.898C12.4505 177.092 12.5274 177.277 12.6644 177.414C12.8014 177.551 12.9871 177.628 13.1808 177.628H23.8002C23.9939 177.628 24.1796 177.551 24.3166 177.414C24.4536 177.277 24.5305 177.092 24.5305 176.898V166.271C24.5305 166.077 24.4536 165.892 24.3166 165.755C24.1796 165.618 23.9939 165.541 23.8002 165.541L13.1808 165.552Z" fill="white"/>
<path d="M20.1373 126.851C19.8337 126.848 19.5338 126.784 19.2553 126.663C18.9768 126.542 18.7254 126.366 18.516 126.147L15.9597 123.449L17.5446 121.956L20.1008 124.653C20.1158 124.667 20.1353 124.675 20.1556 124.675C20.1747 124.674 20.1927 124.666 20.2067 124.653L29.1755 115.352L30.7421 116.863L21.7441 126.161C21.5356 126.377 21.2861 126.549 21.0102 126.668C20.7343 126.786 20.4376 126.849 20.1373 126.851Z" fill="#C5221D"/>
<path d="M20.1373 150.438C19.8336 150.436 19.5334 150.372 19.2548 150.251C18.9762 150.13 18.7249 149.954 18.516 149.733L15.9597 147.035L17.5446 145.546L20.1008 148.24C20.1173 148.251 20.136 148.259 20.1556 148.262C20.1652 148.262 20.1748 148.261 20.1836 148.257C20.1925 148.253 20.2003 148.247 20.2067 148.24L29.1755 138.942L30.7421 140.453L21.7441 149.744C21.536 149.961 21.2867 150.134 21.0107 150.253C20.7348 150.372 20.4379 150.435 20.1373 150.438Z" fill="#C5221D"/>
<path d="M43.7168 119.849H33.6891V122.025H43.7168V119.849Z" fill="#100C1A"/>
<path d="M50.5749 126.73H33.6891V128.906H50.5749V126.73Z" fill="#100C1A"/>
<path d="M43.7168 143.429H33.6891V145.605H43.7168V143.429Z" fill="#100C1A"/>
<path d="M50.5749 150.314H33.6891V152.49H50.5749V150.314Z" fill="#100C1A"/>
<path d="M43.7168 167.034H33.6891V169.21H43.7168V167.034Z" fill="#100C1A"/>
<path d="M50.5749 173.919H33.6891V176.095H50.5749V173.919Z" fill="#100C1A"/>
<path d="M50.5756 167.034H47.1458V169.211H50.5756V167.034Z" fill="#100C1A"/>
</svg>
