<svg width="193" height="196" viewBox="0 0 193 196" fill="none" xmlns="http://www.w3.org/2000/svg">
<path d="M133.995 0V120.418C133.995 157.406 103.999 187.393 67.0027 187.393C30.0066 187.393 0 157.414 0 120.418C0 103.292 -4.17912e-06 79.6249 14.5341 58.2429C33.5014 29.9721 66.9991 17.0377 66.9991 17.0377V34.0754L133.995 0Z" fill="#53407F"/>
<path d="M52.4942 97.9293L26.2015 102.796C31.8435 97.5168 38.0186 95.1293 43.3648 94.4977C50.0293 93.7019 52.4942 97.9293 52.4942 97.9293Z" fill="#100C1A"/>
<path d="M100.61 102.796C94.968 97.5168 88.7892 95.1293 83.4467 94.4977C76.8151 93.7019 74.3173 97.9293 74.3173 97.9293" fill="#100C1A"/>
<path d="M89.253 146.976L63.4277 153.876C63.4277 153.876 70.5669 159.567 79.3275 157.311C87.3139 155.252 89.253 146.976 89.253 146.976Z" fill="#100C1A"/>
<path d="M102.929 125.514C102.929 127.606 102.547 129.681 101.8 131.636H100.979H94.8986H94.7525L76.5813 131.614H69.5334C68.6395 129.249 68.2766 126.717 68.4703 124.196C68.664 121.675 69.4096 119.228 70.6544 117.027C71.8991 114.826 73.6125 112.926 75.6734 111.461C77.7342 109.995 80.092 109.001 82.58 108.547C85.0679 108.094 87.6251 108.193 90.0706 108.837C92.5161 109.481 94.79 110.655 96.7314 112.275C98.6729 113.895 100.234 115.922 101.305 118.212C102.376 120.503 102.931 123 102.929 125.528V125.514Z" fill="#F9F6FF"/>
<path d="M102.206 126.043C102.207 127.339 101.952 128.622 101.454 129.818C101.196 130.46 100.869 131.072 100.479 131.643L84.2647 131.625C83.3903 130.355 82.8267 128.898 82.6194 127.37C82.4121 125.843 82.5669 124.288 83.0714 122.831C83.5758 121.374 84.4158 120.056 85.5235 118.984C86.6311 117.911 87.9755 117.114 89.4481 116.657C90.9206 116.199 92.4802 116.094 94.0009 116.35C95.5215 116.606 96.9607 117.215 98.2024 118.13C99.444 119.044 100.453 120.237 101.149 121.613C101.844 122.989 102.206 124.509 102.206 126.051V126.043Z" fill="#100C1A"/>
<path d="M87.6462 126.302C87.9427 126.302 88.183 126.062 88.183 125.766C88.183 125.469 87.9427 125.229 87.6462 125.229C87.3497 125.229 87.1094 125.469 87.1094 125.766C87.1094 126.062 87.3497 126.302 87.6462 126.302Z" fill="#F9F6FF"/>
<path d="M81.9896 123.524L83.6804 120.041C84.2046 119.847 84.7752 119.813 85.3185 119.946C85.8619 120.078 86.3532 120.37 86.7292 120.784C87.1052 121.198 87.3487 121.715 87.4282 122.268C87.5078 122.821 87.4198 123.386 87.1756 123.889C86.9315 124.392 86.5422 124.81 86.0581 125.09C85.574 125.37 85.0172 125.499 84.4593 125.459C83.9014 125.42 83.3681 125.215 82.9279 124.87C82.4878 124.525 82.161 124.056 81.9896 123.524Z" fill="#F9F6FF"/>
<path d="M58.0632 125.514C58.0636 127.606 57.6812 129.681 56.9348 131.636H56.1131H50.0293H49.8832L31.7156 131.614H24.6677C23.9223 129.659 23.5435 127.584 23.5503 125.492C23.6208 120.96 25.4724 116.638 28.7049 113.46C31.9373 110.281 36.2909 108.503 40.8247 108.507C45.3585 108.512 49.7084 110.3 52.9341 113.485C56.1598 116.67 58.0022 120.996 58.0632 125.528V125.514Z" fill="#F9F6FF"/>
<path d="M57.3328 126.043C57.3249 128.037 56.7236 129.984 55.6056 131.636L39.388 131.618C38.5123 130.348 37.9476 128.889 37.7396 127.361C37.5316 125.832 37.686 124.276 38.1905 122.818C38.6949 121.36 39.5353 120.041 40.6436 118.968C41.7519 117.895 43.0972 117.097 44.5709 116.639C46.0445 116.181 47.6051 116.076 49.1268 116.333C50.6485 116.589 52.0885 117.199 53.3307 118.115C54.5728 119.03 55.5823 120.225 56.2775 121.602C56.9727 122.979 57.3342 124.5 57.3328 126.043Z" fill="#100C1A"/>
<path d="M42.7842 126.302C43.0806 126.302 43.321 126.062 43.321 125.766C43.321 125.469 43.0806 125.229 42.7842 125.229C42.4877 125.229 42.2474 125.469 42.2474 125.766C42.2474 126.062 42.4877 126.302 42.7842 126.302Z" fill="#F9F6FF"/>
<path d="M37.1312 123.524L38.822 120.041C39.3462 119.847 39.9168 119.813 40.4601 119.946C41.0035 120.078 41.4948 120.37 41.8708 120.784C42.2468 121.198 42.4903 121.715 42.5698 122.268C42.6494 122.821 42.5614 123.386 42.3172 123.889C42.0731 124.392 41.6839 124.81 41.1998 125.09C40.7156 125.37 40.1588 125.499 39.6009 125.459C39.043 125.42 38.5097 125.215 38.0695 124.87C37.6294 124.525 37.3026 124.056 37.1312 123.524Z" fill="#F9F6FF"/>
<path d="M188.563 114.478L154.813 140.668L161.091 125.233L188.563 114.478Z" fill="#E17726" stroke="#E17726" stroke-width="0.25" stroke-linecap="round" stroke-linejoin="round"/>
<path d="M110.711 114.478L144.165 140.913L138.187 125.233L110.711 114.478Z" fill="#E27625" stroke="#E27625" stroke-width="0.25" stroke-linecap="round" stroke-linejoin="round"/>
<path d="M176.414 175.207L167.43 189.591L186.66 195.143L192.171 175.521L176.414 175.207Z" fill="#E27625" stroke="#E27625" stroke-width="0.25" stroke-linecap="round" stroke-linejoin="round"/>
<path d="M107.139 175.521L112.617 195.143L131.829 189.591L122.882 175.207L107.139 175.521Z" fill="#E27625" stroke="#E27625" stroke-width="0.25" stroke-linecap="round" stroke-linejoin="round"/>
<path d="M130.777 150.901L125.435 159.352L144.464 160.257L143.829 138.795L130.777 150.901Z" fill="#E27625" stroke="#E27625" stroke-width="0.25" stroke-linecap="round" stroke-linejoin="round"/>
<path d="M168.5 150.901L155.248 138.54L154.813 160.261L173.843 159.352L168.5 150.901Z" fill="#E27625" stroke="#E27625" stroke-width="0.25" stroke-linecap="round" stroke-linejoin="round"/>
<path d="M131.829 189.594L143.347 183.753L133.414 175.667L131.829 189.594Z" fill="#E27625" stroke="#E27625" stroke-width="0.25" stroke-linecap="round" stroke-linejoin="round"/>
<path d="M155.949 183.764L167.43 189.605L165.864 175.667L155.949 183.764Z" fill="#E27625" stroke="#E27625" stroke-width="0.25" stroke-linecap="round" stroke-linejoin="round"/>
<path d="M167.43 189.591L155.949 183.75L156.884 191.569L156.782 194.888L167.43 189.591Z" fill="#D5BFB2" stroke="#D5BFB2" stroke-width="0.25" stroke-linecap="round" stroke-linejoin="round"/>
<path d="M131.829 189.591L142.514 194.899L142.445 191.581L143.347 183.761L131.829 189.591Z" fill="#D5BFB2" stroke="#D5BFB2" stroke-width="0.25" stroke-linecap="round" stroke-linejoin="round"/>
<path d="M142.693 170.49L133.147 167.57L139.892 164.321L142.693 170.49Z" fill="#233447" stroke="#233447" stroke-width="0.25" stroke-linecap="round" stroke-linejoin="round"/>
<path d="M156.581 170.49L159.385 164.31L166.163 167.559L156.581 170.49Z" fill="#233447" stroke="#233447" stroke-width="0.25" stroke-linecap="round" stroke-linejoin="round"/>
<path d="M131.829 189.591L133.498 175.207L122.882 175.521L131.829 189.591Z" fill="#CC6228" stroke="#CC6228" stroke-width="0.25" stroke-linecap="round" stroke-linejoin="round"/>
<path d="M165.791 175.207L167.427 189.591L176.406 175.521L165.791 175.207Z" fill="#CC6228" stroke="#CC6228" stroke-width="0.25" stroke-linecap="round" stroke-linejoin="round"/>
<path d="M173.843 159.349L154.813 160.258L156.581 170.48L159.385 164.299L166.163 167.544L173.843 159.349Z" fill="#CC6228" stroke="#CC6228" stroke-width="0.25" stroke-linecap="round" stroke-linejoin="round"/>
<path d="M133.147 167.555L139.889 164.31L142.693 170.49L144.464 160.268L125.435 159.359L133.147 167.555Z" fill="#CC6228" stroke="#CC6228" stroke-width="0.25" stroke-linecap="round" stroke-linejoin="round"/>
<path d="M125.435 159.349L133.414 175.667L133.147 167.566L125.435 159.349Z" fill="#E27525" stroke="#E27525" stroke-width="0.25" stroke-linecap="round" stroke-linejoin="round"/>
<path d="M166.156 167.555L165.864 175.667L173.843 159.359L166.156 167.555Z" fill="#E27525" stroke="#E27525" stroke-width="0.25" stroke-linecap="round" stroke-linejoin="round"/>
<path d="M144.464 160.261L142.697 170.483L144.932 182.563L145.432 166.643L144.464 160.261Z" fill="#E27525" stroke="#E27525" stroke-width="0.25" stroke-linecap="round" stroke-linejoin="round"/>
<path d="M154.813 160.261L153.878 166.617L154.346 182.574L156.581 170.494L154.813 160.261Z" fill="#E27525" stroke="#E27525" stroke-width="0.25" stroke-linecap="round" stroke-linejoin="round"/>
<path d="M156.584 170.49L154.346 182.574L155.949 183.76L165.864 175.667L166.163 167.566L156.584 170.49Z" fill="#F5841F" stroke="#F5841F" stroke-width="0.25" stroke-linecap="round" stroke-linejoin="round"/>
<path d="M133.147 167.559L133.414 175.659L143.328 183.76L144.932 182.574L142.693 170.49L133.147 167.559Z" fill="#F5841F" stroke="#F5841F" stroke-width="0.25" stroke-linecap="round" stroke-linejoin="round"/>
<path d="M155.949 183.757L154.346 182.57H144.932L143.328 183.757L142.419 191.58L143.255 190.81H156.007L156.877 191.58L155.949 183.757Z" fill="#161616" stroke="#161616" stroke-width="0.25" stroke-linecap="round" stroke-linejoin="round"/>
<path d="M189.998 142.38L192.836 127.923L188.563 114.478L155.949 139.795L168.5 150.901L186.24 156.318L190.148 151.536L188.446 150.244L191.148 147.659L189.078 145.983L191.784 143.819L189.998 142.38Z" fill="#763E1A" stroke="#763E1A" stroke-width="0.25" stroke-linecap="round" stroke-linejoin="round"/>
<path d="M106.438 127.923L109.312 142.38L107.486 143.811L110.221 145.976L108.155 147.652L110.857 150.236L109.155 151.529L113.048 156.318L130.777 150.908L143.328 139.803L110.711 114.485L106.438 127.923Z" fill="#763E1A" stroke="#763E1A" stroke-width="0.25" stroke-linecap="round" stroke-linejoin="round"/>
<path d="M186.24 156.319L168.515 150.908L173.857 159.356L165.864 175.667L176.414 175.528H192.171L186.24 156.319Z" fill="#F5841F" stroke="#F5841F" stroke-width="0.25" stroke-linecap="round" stroke-linejoin="round"/>
<path d="M130.777 150.901L113.048 156.318L107.139 175.525H122.864L133.414 175.663L125.435 159.356L130.777 150.901Z" fill="#F5841F" stroke="#F5841F" stroke-width="0.25" stroke-linecap="round" stroke-linejoin="round"/>
<path d="M154.813 160.261L155.949 139.799L161.091 125.236H138.187L143.328 139.799L144.464 160.261L144.899 166.686L144.932 182.574H154.346L154.379 166.686L154.813 160.261Z" fill="#F5841F" stroke="#F5841F" stroke-width="0.25" stroke-linecap="round" stroke-linejoin="round"/>
</svg>
